<svg data-name="Calque 1" xmlns="http://www.w3.org/2000/svg"
    xmlns:xlink="http://www.w3.org/1999/xlink" viewBox="0 0 370.02 270.2">
    <defs>
        <style>.cls-1{fill:none;}.cls-2{clip-path:url(#clip-path);}.cls-3{fill:#a306b6;}</style>
        <clipPath id="clip-path" transform="translate(0.01 0.1)">
            <rect class="cls-1" width="370" height="270" />
        </clipPath>
    </defs>
    <title>icone_wild_code_school</title>
    <g class="cls-2">
        <path class="cls-3"
            d="M170.06,159.84V89.9a10,10,0,0,0-20,0v69.58c0,22.39-18,40.6-40,40.6s-40-18.21-40-40.6V59.9a10,10,0,0,0-20,0v99.94a60,60,0,1,0,120,0"
            transform="translate(0.01 0.1)" />
        <path class="cls-3"
            d="M164.37,49.9a10.18,10.18,0,0,0,9.26-6.11,40,40,0,0,1,36.43-23.86c22.06,0,40,18.22,40,40.6V159.9a10,10,0,0,0,20,0V60a60,60,0,0,0-115-24.05,10.06,10.06,0,0,0,9.3,14"
            transform="translate(0.01 0.1)" />
        <path class="cls-3"
            d="M210.06,49.9h0a10,10,0,0,0-10,10v99.94a60,60,0,1,0,120,0V149.9a10,10,0,0,0-20,0v9.58c0,22.39-17.95,40.6-40,40.6s-40-18.21-40-40.6V59.9a10,10,0,0,0-10-10"
            transform="translate(0.01 0.1)" />
        <path class="cls-3"
            d="M10,89.91a10,10,0,0,0,10-10V60.55c0-22.39,18-40.61,40-40.61s40,18.22,40,40.61V159.9a10,10,0,0,0,20,0V60A60,60,0,1,0,0,60V79.91a10,10,0,0,0,10,10"
            transform="translate(0.01 0.1)" />
        <path class="cls-3"
            d="M20,165.19V129.9a10,10,0,0,0-10.67-10A10.24,10.24,0,0,0,0,130.25v33.6a106.6,106.6,0,0,0,29,72.87,9.74,9.74,0,0,0,14.23-13.3A84.53,84.53,0,0,1,20,165.19"
            transform="translate(0.01 0.1)" />
        <path class="cls-3"
            d="M360.26,10.68A34.86,34.86,0,0,0,338.09,0l-.38,0c-.42,0-.85-.06-1.28-.07l-.79,0L335-.1h-.26c-.14,0-.28,0-.42,0a34.36,34.36,0,0,0-4.09.32l-.17,0h0A35,35,0,0,0,300,34.9v65a10,10,0,0,0,10.67,10A10.23,10.23,0,0,0,320,99.55V35.33a15.29,15.29,0,0,1,14.25-15.41,14.93,14.93,0,0,1,9.59,2.88c.28.21.55.42.81.65l.45.38c.17.15.33.31.48.47s.37.37.54.56l.49.57.46.59c.11.15.22.29.32.44s.38.59.56.9l.22.38c.19.35.37.7.53,1.06,0,.1.08.2.13.3.15.36.29.72.41,1.1l.06.15c.13.42.24.85.34,1.28l.06.28c.08.43.15.87.2,1.32l0,.25c0,.47.07.94.07,1.42V165a85,85,0,0,1-1,13.25,10,10,0,0,0,9.85,11.66h0a10,10,0,0,0,9.88-8.45A105,105,0,0,0,370,165.1V34.9a34.85,34.85,0,0,0-9.75-24.22"
            transform="translate(0.01 0.1)" />
        <path class="cls-3"
            d="M339.61,213.9h-.29a9.88,9.88,0,0,0-7.74,3.81c-.5.62-1,1.23-1.51,1.84q-1.53,1.81-3.16,3.55l0,0a86.86,86.86,0,0,1-7.6,7.14l-.16.14c-.46.38-.93.75-1.4,1.12l-.31.25-1.33,1-.41.31-1.29.94-.49.35-1.27.88-.53.36-1.27.83-.58.36-1.26.79-.6.36-1.28.75-.62.35-1.29.71-.62.33-1.33.69-.6.29c-.46.23-.91.46-1.37.67l-.5.23q-2.49,1.16-5,2.16l-.46.18-1.24.46-.87.31c-.38.14-.77.26-1.15.39l-1,.33-1.12.35-1,.31-1.1.31-1.09.3-1.09.28-1.11.27-1.09.25-1.15.24-1.07.22-1.18.22-1.07.18-1.21.19-1.06.15-1.26.16-1,.13-1.31.13-1,.09-1.38.1-.94.06-1.55.07-.8,0c-.78,0-1.57,0-2.36,0a85,85,0,0,1-68-34.07l-.05.09h0l-.06-.09a14.78,14.78,0,0,0-23.68,0l0,.06A85,85,0,0,1,80.7,246.55,9.94,9.94,0,0,0,75,265.6a102.14,102.14,0,0,0,30.22,4.5,104.36,104.36,0,0,0,44.57-10,105.41,105.41,0,0,0,35.2-27,105,105,0,0,0,142,16.72,10.05,10.05,0,0,0,1.48-1.33l0,0c1.1-.84,2.18-1.69,3.24-2.57l.19-.16c1-.79,1.9-1.61,2.83-2.44l.52-.46q1.17-1.07,2.31-2.16c.3-.3.61-.58.92-.88.64-.63,1.26-1.28,1.89-1.93.34-.35.69-.69,1-1.05l.08-.1c2-2.14,3.94-4.37,5.76-6.68a9.92,9.92,0,0,0-7.73-16.13"
            transform="translate(0.01 0.1)" />
    </g>
</svg>