<svg width="28" height="28" viewBox="0 0 28 28" fill="none" xmlns="http://www.w3.org/2000/svg">
<path d="M14 3.35673C12.9873 3.35673 12.1251 3.7115 11.4135 4.42105C10.7019 5.1306 10.346 5.99025 10.346 7C10.346 8.00975 10.7019 8.8694 11.4135 9.57895C12.1251 10.2885 12.9873 10.6433 14 10.6433C15.0127 10.6433 15.8749 10.2885 16.5865 9.57895C17.2981 8.8694 17.654 8.00975 17.654 7C17.654 5.99025 17.2981 5.1306 16.5865 4.42105C15.8749 3.7115 15.0127 3.35673 14 3.35673ZM14.0411 19.076C11.6325 19.076 9.25122 19.5263 6.89736 20.4269C4.5435 21.3275 3.36657 22.1053 3.36657 22.7602V24.6433H24.7155V22.7602C24.7155 22.1053 23.5386 21.3275 21.1848 20.4269C18.8309 19.5263 16.4497 19.076 14.0411 19.076ZM14 0C15.9433 0 17.5992 0.682261 18.9677 2.04678C20.3363 3.41131 21.0205 5.06238 21.0205 7C21.0205 8.93762 20.3363 10.5887 18.9677 11.9532C17.5992 13.3177 15.9433 14 14 14C12.0567 14 10.4008 13.3177 9.03226 11.9532C7.66373 10.5887 6.97947 8.93762 6.97947 7C6.97947 5.06238 7.66373 3.41131 9.03226 2.04678C10.4008 0.682261 12.0567 0 14 0ZM14 15.7193C15.7243 15.7193 17.6266 15.9649 19.7067 16.4561C21.7869 16.9474 23.6891 17.7524 25.4135 18.8713C27.1378 19.9903 28 21.2866 28 22.7602V28H0V22.7602C0 21.2866 0.86217 19.9903 2.58651 18.8713C4.31085 17.7524 6.2131 16.9474 8.29326 16.4561C10.3734 15.9649 12.2757 15.7193 14 15.7193Z" fill="white"/>
</svg>
